<?xml version="1.0" standalone="no"?>
<!DOCTYPE svg PUBLIC "-//W3C//DTD SVG 20010904//EN"
 "http://www.w3.org/TR/2001/REC-SVG-20010904/DTD/svg10.dtd">
<svg version="1.0" xmlns="http://www.w3.org/2000/svg"
 width="500.000000pt" height="500.000000pt" viewBox="0 0 500.000000 500.000000"
 preserveAspectRatio="xMidYMid meet">
<metadata>
Created by potrace 1.14, written by Peter Selinger 2001-2017
</metadata>
<g transform="translate(0.000000,500.000000) scale(0.100000,-0.100000)"
fill="#000000" stroke="none">
<path d="M189 3713 c0 -21 -1 -587 -1 -1258 l0 -1220 284 -3 284 -2 0 482 0
483 94 2 c195 3 240 -38 470 -419 74 -122 140 -231 145 -240 120 -203 181
-301 190 -304 5 -2 153 -3 327 -2 l317 3 -87 137 c-48 76 -136 216 -196 310
-311 491 -381 578 -527 658 l-52 28 52 16 c132 39 291 148 376 257 84 108 135
254 139 401 9 281 -110 496 -334 601 -58 27 -160 63 -201 70 -13 3 -40 8 -59
12 -19 3 -48 9 -65 12 -16 3 -283 7 -592 10 l-563 4 -1 -38z m981 -402 c80
-21 141 -59 180 -113 41 -56 54 -107 54 -210 -1 -77 -5 -95 -32 -150 -43 -87
-93 -138 -174 -176 -74 -34 -120 -41 -287 -39 l-155 2 -1 340 c0 187 1 346 3
353 7 20 327 14 412 -7z"/>
<path d="M2539 3713 c-1 -52 -1 -2444 0 -2465 1 -17 21 -18 269 -18 l268 0 -2
838 c-1 460 -4 863 -8 895 -3 31 -4 57 -2 57 2 0 19 -26 36 -57 18 -32 55 -90
81 -130 27 -40 49 -76 49 -82 0 -5 3 -11 8 -13 6 -3 52 -68 77 -110 5 -10 80
-123 165 -253 286 -435 434 -660 594 -903 l158 -242 287 0 287 0 0 1260 0
1260 -269 0 -268 0 3 -869 3 -868 -35 60 c-44 75 -45 76 -165 260 -268 410
-339 518 -468 717 -77 118 -168 258 -202 310 -34 52 -106 161 -158 243 l-96
147 -306 0 -305 0 -1 -37z"/>
</g>
</svg>
